<svg xmlns="http://www.w3.org/2000/svg" xmlns:xlink="http://www.w3.org/1999/xlink" id="visual" width="960" height="540" version="1.1" viewBox="0 0 960 540"><path fill="#64e9ff" d="M0 12L13.3 25.5C26.7 39 53.3 66 80 75C106.7 84 133.3 75 160 74C186.7 73 213.3 80 240 71C266.7 62 293.3 37 320 32.5C346.7 28 373.3 44 400 46.7C426.7 49.3 453.3 38.7 480 35.2C506.7 31.7 533.3 35.3 560 36.2C586.7 37 613.3 35 640 43C666.7 51 693.3 69 720 79C746.7 89 773.3 91 800 85.7C826.7 80.3 853.3 67.7 880 62.2C906.7 56.7 933.3 58.3 946.7 59.2L960 60L960 0L946.7 0C933.3 0 906.7 0 880 0C853.3 0 826.7 0 800 0C773.3 0 746.7 0 720 0C693.3 0 666.7 0 640 0C613.3 0 586.7 0 560 0C533.3 0 506.7 0 480 0C453.3 0 426.7 0 400 0C373.3 0 346.7 0 320 0C293.3 0 266.7 0 240 0C213.3 0 186.7 0 160 0C133.3 0 106.7 0 80 0C53.3 0 26.7 0 13.3 0L0 0Z"/><path fill="#06cfff" d="M0 44L13.3 66.5C26.7 89 53.3 134 80 180.8C106.7 227.7 133.3 276.3 160 284.5C186.7 292.7 213.3 260.3 240 212.7C266.7 165 293.3 102 320 89.3C346.7 76.7 373.3 114.3 400 154.8C426.7 195.3 453.3 238.7 480 236.8C506.7 235 533.3 188 560 168.2C586.7 148.3 613.3 155.7 640 178.2C666.7 200.7 693.3 238.3 720 248.2C746.7 258 773.3 240 800 227.5C826.7 215 853.3 208 880 185.5C906.7 163 933.3 125 946.7 106L960 87L960 58L946.7 57.2C933.3 56.3 906.7 54.7 880 60.2C853.3 65.7 826.7 78.3 800 83.7C773.3 89 746.7 87 720 77C693.3 67 666.7 49 640 41C613.3 33 586.7 35 560 34.2C533.3 33.3 506.7 29.7 480 33.2C453.3 36.7 426.7 47.3 400 44.7C373.3 42 346.7 26 320 30.5C293.3 35 266.7 60 240 69C213.3 78 186.7 71 160 72C133.3 73 106.7 82 80 73C53.3 64 26.7 37 13.3 23.5L0 10Z"/><path fill="#00b2ff" d="M0 222L13.3 241C26.7 260 53.3 298 80 324.2C106.7 350.3 133.3 364.7 160 360.2C186.7 355.7 213.3 332.3 240 296.3C266.7 260.3 293.3 211.7 320 200.8C346.7 190 373.3 217 400 252.2C426.7 287.3 453.3 330.7 480 333.3C506.7 336 533.3 298 560 283.5C586.7 269 613.3 278 640 284.3C666.7 290.7 693.3 294.3 720 309.7C746.7 325 773.3 352 800 339.3C826.7 326.7 853.3 274.3 880 247.3C906.7 220.3 933.3 218.7 946.7 217.8L960 217L960 85L946.7 104C933.3 123 906.7 161 880 183.5C853.3 206 826.7 213 800 225.5C773.3 238 746.7 256 720 246.2C693.3 236.3 666.7 198.7 640 176.2C613.3 153.7 586.7 146.3 560 166.2C533.3 186 506.7 233 480 234.8C453.3 236.7 426.7 193.3 400 152.8C373.3 112.3 346.7 74.7 320 87.3C293.3 100 266.7 163 240 210.7C213.3 258.3 186.7 290.7 160 282.5C133.3 274.3 106.7 225.7 80 178.8C53.3 132 26.7 87 13.3 64.5L0 42Z"/><path fill="#0091ff" d="M0 244L13.3 266.5C26.7 289 53.3 334 80 359.2C106.7 384.3 133.3 389.7 160 383.3C186.7 377 213.3 359 240 335.7C266.7 312.3 293.3 283.7 320 273.8C346.7 264 373.3 273 400 300C426.7 327 453.3 372 480 378.3C506.7 384.7 533.3 352.3 560 344.2C586.7 336 613.3 352 640 362.7C666.7 373.3 693.3 378.7 720 384.2C746.7 389.7 773.3 395.3 800 374.7C826.7 354 853.3 307 880 285.3C906.7 263.7 933.3 267.3 946.7 269.2L960 271L960 215L946.7 215.8C933.3 216.7 906.7 218.3 880 245.3C853.3 272.3 826.7 324.7 800 337.3C773.3 350 746.7 323 720 307.7C693.3 292.3 666.7 288.7 640 282.3C613.3 276 586.7 267 560 281.5C533.3 296 506.7 334 480 331.3C453.3 328.7 426.7 285.3 400 250.2C373.3 215 346.7 188 320 198.8C293.3 209.7 266.7 258.3 240 294.3C213.3 330.3 186.7 353.7 160 358.2C133.3 362.7 106.7 348.3 80 322.2C53.3 296 26.7 258 13.3 239L0 220Z"/><path fill="#006bf9" d="M0 487L13.3 491.5C26.7 496 53.3 505 80 497.8C106.7 490.7 133.3 467.3 160 455.7C186.7 444 213.3 444 240 453.8C266.7 463.7 293.3 483.3 320 489.7C346.7 496 373.3 489 400 481.8C426.7 474.7 453.3 467.3 480 472.7C506.7 478 533.3 496 560 501.3C586.7 506.7 613.3 499.3 640 493C666.7 486.7 693.3 481.3 720 486.8C746.7 492.3 773.3 508.7 800 511.3C826.7 514 853.3 503 880 494.8C906.7 486.7 933.3 481.3 946.7 478.7L960 476L960 269L946.7 267.2C933.3 265.3 906.7 261.7 880 283.3C853.3 305 826.7 352 800 372.7C773.3 393.3 746.7 387.7 720 382.2C693.3 376.7 666.7 371.3 640 360.7C613.3 350 586.7 334 560 342.2C533.3 350.3 506.7 382.7 480 376.3C453.3 370 426.7 325 400 298C373.3 271 346.7 262 320 271.8C293.3 281.7 266.7 310.3 240 333.7C213.3 357 186.7 375 160 381.3C133.3 387.7 106.7 382.3 80 357.2C53.3 332 26.7 287 13.3 264.5L0 242Z"/><path fill="#103ce7" d="M0 541L13.3 541C26.7 541 53.3 541 80 541C106.7 541 133.3 541 160 541C186.7 541 213.3 541 240 541C266.7 541 293.3 541 320 541C346.7 541 373.3 541 400 541C426.7 541 453.3 541 480 541C506.7 541 533.3 541 560 541C586.7 541 613.3 541 640 541C666.7 541 693.3 541 720 541C746.7 541 773.3 541 800 541C826.7 541 853.3 541 880 541C906.7 541 933.3 541 946.7 541L960 541L960 474L946.7 476.7C933.3 479.3 906.7 484.7 880 492.8C853.3 501 826.7 512 800 509.3C773.3 506.7 746.7 490.3 720 484.8C693.3 479.3 666.7 484.7 640 491C613.3 497.3 586.7 504.7 560 499.3C533.3 494 506.7 476 480 470.7C453.3 465.3 426.7 472.7 400 479.8C373.3 487 346.7 494 320 487.7C293.3 481.3 266.7 461.7 240 451.8C213.3 442 186.7 442 160 453.7C133.3 465.3 106.7 488.7 80 495.8C53.3 503 26.7 494 13.3 489.5L0 485Z"/></svg>