<svg xmlns="http://www.w3.org/2000/svg" xmlns:xlink="http://www.w3.org/1999/xlink" id="visual" width="960" height="540" version="1.1" viewBox="0 0 960 540"><path fill="#64e9ff" d="M0 50L107 60L213 12L320 60L427 28L533 39L640 60L747 60L853 12L960 23L960 0L853 0L747 0L640 0L533 0L427 0L320 0L213 0L107 0L0 0Z"/><path fill="#2ed7ff" d="M0 77L107 82L213 87L320 104L427 98L533 185L640 185L747 174L853 125L960 87L960 21L853 10L747 58L640 58L533 37L427 26L320 58L213 10L107 58L0 48Z"/><path fill="#00c3ff" d="M0 104L107 109L213 141L320 158L427 141L533 222L640 222L747 201L853 179L960 152L960 85L853 123L747 172L640 183L533 183L427 96L320 102L213 85L107 80L0 75Z"/><path fill="#00adff" d="M0 201L107 158L213 201L320 179L427 217L533 239L640 239L747 222L853 282L960 190L960 150L853 177L747 199L640 220L533 220L427 139L320 156L213 139L107 107L0 102Z"/><path fill="#0096ff" d="M0 347L107 368L213 249L320 357L427 357L533 336L640 341L747 330L853 406L960 287L960 188L853 280L747 220L640 237L533 237L427 215L320 177L213 199L107 156L0 199Z"/><path fill="#007cfd" d="M0 395L107 433L213 320L320 422L427 422L533 368L640 363L747 374L853 444L960 347L960 285L853 404L747 328L640 339L533 334L427 355L320 355L213 247L107 366L0 345Z"/><path fill="#005ff5" d="M0 492L107 519L213 487L320 503L427 492L533 492L640 492L747 509L853 530L960 498L960 345L853 442L747 372L640 361L533 366L427 420L320 420L213 318L107 431L0 393Z"/><path fill="#103ce7" d="M0 541L107 541L213 541L320 541L427 541L533 541L640 541L747 541L853 541L960 541L960 496L853 528L747 507L640 490L533 490L427 490L320 501L213 485L107 517L0 490Z"/></svg>